<?xml version="1.0" encoding="utf-8"?>
<!-- Generator: Adobe Illustrator 18.0.0, SVG Export Plug-In . SVG Version: 6.00 Build 0)  -->
<!DOCTYPE svg PUBLIC "-//W3C//DTD SVG 1.1//EN" "http://www.w3.org/Graphics/SVG/1.1/DTD/svg11.dtd">
<svg version="1.1" id="Layer_1" xmlns="http://www.w3.org/2000/svg" xmlns:xlink="http://www.w3.org/1999/xlink" x="0px" y="0px"
	 width="13px" height="12.6374931px" viewBox="-6.5 -6.3187466 13 12.6374931"
	 enable-background="new -6.5 -6.3187466 13 12.6374931" xml:space="preserve">
<g>
	<rect x="-0.3614154" y="-1.2633162" fill="#999999" width="1.0831507" height="1.0831513"/>
	<rect x="2.5277169" y="-1.2633162" fill="#999999" width="1.0831507" height="1.0831513"/>
	<rect x="-3.2505465" y="1.625844" fill="#999999" width="1.0831507" height="1.0831513"/>
	<rect x="-0.3614154" y="1.625844" fill="#999999" width="1.0831507" height="1.0831513"/>
	<rect x="-1.8048887" y="-1.2633162" fill="#999999" width="1.0831507" height="1.0831513"/>
	<rect x="1.0820591" y="-1.2633162" fill="#999999" width="1.0831507" height="1.0831513"/>
	<rect x="-1.8048887" y="0.1801653" fill="#999999" width="1.0831507" height="1.0831513"/>
	<rect x="1.0820591" y="0.1801653" fill="#999999" width="1.0831507" height="1.0831513"/>
	<rect x="-3.2505465" y="0.1801653" fill="#999999" width="1.0831507" height="1.0831513"/>
	<rect x="-0.3614154" y="0.1801653" fill="#999999" width="1.0831507" height="1.0831513"/>
	<rect x="2.5277169" y="0.1801653" fill="#999999" width="1.0831507" height="1.0831513"/>
	<rect x="-1.8048887" y="1.625844" fill="#999999" width="1.0831507" height="1.0831513"/>
	<rect x="1.0820591" y="1.625844" fill="#999999" width="1.0831507" height="1.0831513"/>
	<path fill="#999999" d="M-6.5-6.3187466V6.318747h13V-6.3187466H-6.5z M5.4168468,5.2355947H-5.4168491v-8.6652107H5.4168468
		V5.2355947z"/>
</g>
</svg>
